<mxfile host="app.diagrams.net" agent="Mozilla/5.0 (X11; Linux x86_64) AppleWebKit/537.36 (KHTML, like Gecko) Chrome/136.0.0.0 Safari/537.36" version="27.0.3">
  <diagram name="Page-1" id="O-GzzjCTq65yIWGcD62a">
    <mxGraphModel dx="2000" dy="1279" grid="1" gridSize="10" guides="1" tooltips="1" connect="1" arrows="1" fold="1" page="1" pageScale="1" pageWidth="850" pageHeight="1100" math="0" shadow="0">
      <root>
        <mxCell id="0" />
        <mxCell id="1" parent="0" />
        <mxCell id="7bcsrVmga6aSKQYHcsEv-3" value="" style="edgeStyle=orthogonalEdgeStyle;rounded=0;orthogonalLoop=1;jettySize=auto;html=1;" parent="1" source="7bcsrVmga6aSKQYHcsEv-1" target="7bcsrVmga6aSKQYHcsEv-2" edge="1">
          <mxGeometry relative="1" as="geometry" />
        </mxCell>
        <mxCell id="7bcsrVmga6aSKQYHcsEv-7" value="Position &amp;amp; Rotation&lt;br&gt;UDP" style="edgeLabel;html=1;align=center;verticalAlign=middle;resizable=0;points=[];" parent="7bcsrVmga6aSKQYHcsEv-3" vertex="1" connectable="0">
          <mxGeometry x="-0.225" y="2" relative="1" as="geometry">
            <mxPoint x="10" y="2" as="offset" />
          </mxGeometry>
        </mxCell>
        <mxCell id="7bcsrVmga6aSKQYHcsEv-1" value="Vicon (PC)" style="rounded=1;whiteSpace=wrap;html=1;" parent="1" vertex="1">
          <mxGeometry x="30" y="130" width="120" height="60" as="geometry" />
        </mxCell>
        <mxCell id="7bcsrVmga6aSKQYHcsEv-2" value="Operation PC" style="rounded=1;whiteSpace=wrap;html=1;" parent="1" vertex="1">
          <mxGeometry x="270" y="130" width="120" height="60" as="geometry" />
        </mxCell>
        <mxCell id="7bcsrVmga6aSKQYHcsEv-4" value="ROS BAG" style="shape=cylinder3;whiteSpace=wrap;html=1;boundedLbl=1;backgroundOutline=1;size=15;" parent="1" vertex="1">
          <mxGeometry x="300" y="230" width="60" height="80" as="geometry" />
        </mxCell>
        <mxCell id="7bcsrVmga6aSKQYHcsEv-5" style="edgeStyle=orthogonalEdgeStyle;rounded=0;orthogonalLoop=1;jettySize=auto;html=1;exitX=0.5;exitY=1;exitDx=0;exitDy=0;entryX=0.5;entryY=0;entryDx=0;entryDy=0;entryPerimeter=0;" parent="1" source="7bcsrVmga6aSKQYHcsEv-2" target="7bcsrVmga6aSKQYHcsEv-4" edge="1">
          <mxGeometry relative="1" as="geometry" />
        </mxCell>
        <mxCell id="7bcsrVmga6aSKQYHcsEv-6" value="All topics" style="edgeLabel;html=1;align=center;verticalAlign=middle;resizable=0;points=[];" parent="7bcsrVmga6aSKQYHcsEv-5" vertex="1" connectable="0">
          <mxGeometry x="-0.15" y="1" relative="1" as="geometry">
            <mxPoint as="offset" />
          </mxGeometry>
        </mxCell>
        <mxCell id="7bcsrVmga6aSKQYHcsEv-18" style="edgeStyle=orthogonalEdgeStyle;rounded=0;orthogonalLoop=1;jettySize=auto;html=1;exitX=0.96;exitY=0.7;exitDx=0;exitDy=0;exitPerimeter=0;entryX=0;entryY=0.75;entryDx=0;entryDy=0;" parent="1" source="7bcsrVmga6aSKQYHcsEv-8" target="7bcsrVmga6aSKQYHcsEv-9" edge="1">
          <mxGeometry relative="1" as="geometry">
            <Array as="points">
              <mxPoint x="575" y="175" />
            </Array>
          </mxGeometry>
        </mxCell>
        <mxCell id="7bcsrVmga6aSKQYHcsEv-19" value="Vehicle &lt;br&gt;commands" style="edgeLabel;html=1;align=center;verticalAlign=middle;resizable=0;points=[];" parent="7bcsrVmga6aSKQYHcsEv-18" vertex="1" connectable="0">
          <mxGeometry x="0.162" relative="1" as="geometry">
            <mxPoint x="-12" as="offset" />
          </mxGeometry>
        </mxCell>
        <mxCell id="7bcsrVmga6aSKQYHcsEv-20" style="edgeStyle=orthogonalEdgeStyle;rounded=0;orthogonalLoop=1;jettySize=auto;html=1;exitX=0.25;exitY=0.25;exitDx=0;exitDy=0;exitPerimeter=0;entryX=1;entryY=0.25;entryDx=0;entryDy=0;" parent="1" source="7bcsrVmga6aSKQYHcsEv-8" target="7bcsrVmga6aSKQYHcsEv-2" edge="1">
          <mxGeometry relative="1" as="geometry">
            <Array as="points">
              <mxPoint x="490" y="145" />
            </Array>
          </mxGeometry>
        </mxCell>
        <mxCell id="7bcsrVmga6aSKQYHcsEv-21" value="All topics" style="edgeLabel;html=1;align=center;verticalAlign=middle;resizable=0;points=[];" parent="7bcsrVmga6aSKQYHcsEv-20" vertex="1" connectable="0">
          <mxGeometry x="0.0667" relative="1" as="geometry">
            <mxPoint x="-4" as="offset" />
          </mxGeometry>
        </mxCell>
        <mxCell id="7bcsrVmga6aSKQYHcsEv-8" value="ROS" style="ellipse;shape=cloud;whiteSpace=wrap;html=1;" parent="1" vertex="1">
          <mxGeometry x="460" y="120" width="120" height="80" as="geometry" />
        </mxCell>
        <mxCell id="7bcsrVmga6aSKQYHcsEv-11" style="edgeStyle=orthogonalEdgeStyle;rounded=0;orthogonalLoop=1;jettySize=auto;html=1;exitX=0.25;exitY=1;exitDx=0;exitDy=0;entryX=0.25;entryY=0;entryDx=0;entryDy=0;" parent="1" source="7bcsrVmga6aSKQYHcsEv-9" target="7bcsrVmga6aSKQYHcsEv-10" edge="1">
          <mxGeometry relative="1" as="geometry" />
        </mxCell>
        <mxCell id="7bcsrVmga6aSKQYHcsEv-13" value="ROS &lt;br&gt;topic data" style="edgeLabel;html=1;align=center;verticalAlign=middle;resizable=0;points=[];" parent="7bcsrVmga6aSKQYHcsEv-11" vertex="1" connectable="0">
          <mxGeometry x="-0.36" y="-2" relative="1" as="geometry">
            <mxPoint y="4" as="offset" />
          </mxGeometry>
        </mxCell>
        <mxCell id="7bcsrVmga6aSKQYHcsEv-9" value="Raspberry&lt;br&gt;(ROS router)" style="rounded=1;whiteSpace=wrap;html=1;" parent="1" vertex="1">
          <mxGeometry x="670" y="130" width="120" height="60" as="geometry" />
        </mxCell>
        <mxCell id="7bcsrVmga6aSKQYHcsEv-12" style="edgeStyle=orthogonalEdgeStyle;rounded=0;orthogonalLoop=1;jettySize=auto;html=1;exitX=0.75;exitY=0;exitDx=0;exitDy=0;entryX=0.75;entryY=1;entryDx=0;entryDy=0;" parent="1" source="7bcsrVmga6aSKQYHcsEv-10" target="7bcsrVmga6aSKQYHcsEv-9" edge="1">
          <mxGeometry relative="1" as="geometry" />
        </mxCell>
        <mxCell id="7bcsrVmga6aSKQYHcsEv-14" value="FMU data" style="edgeLabel;html=1;align=center;verticalAlign=middle;resizable=0;points=[];" parent="7bcsrVmga6aSKQYHcsEv-12" vertex="1" connectable="0">
          <mxGeometry x="0.08" y="-1" relative="1" as="geometry">
            <mxPoint as="offset" />
          </mxGeometry>
        </mxCell>
        <mxCell id="7bcsrVmga6aSKQYHcsEv-10" value="Fligh controller&lt;br&gt;FMU" style="rounded=1;whiteSpace=wrap;html=1;" parent="1" vertex="1">
          <mxGeometry x="670" y="240" width="120" height="60" as="geometry" />
        </mxCell>
        <mxCell id="7bcsrVmga6aSKQYHcsEv-15" style="edgeStyle=orthogonalEdgeStyle;rounded=0;orthogonalLoop=1;jettySize=auto;html=1;exitX=0;exitY=0.25;exitDx=0;exitDy=0;entryX=0.88;entryY=0.25;entryDx=0;entryDy=0;entryPerimeter=0;" parent="1" source="7bcsrVmga6aSKQYHcsEv-9" target="7bcsrVmga6aSKQYHcsEv-8" edge="1">
          <mxGeometry relative="1" as="geometry">
            <Array as="points">
              <mxPoint x="670" y="140" />
            </Array>
          </mxGeometry>
        </mxCell>
        <mxCell id="7bcsrVmga6aSKQYHcsEv-16" value="FMU Topics" style="edgeLabel;html=1;align=center;verticalAlign=middle;resizable=0;points=[];" parent="7bcsrVmga6aSKQYHcsEv-15" vertex="1" connectable="0">
          <mxGeometry x="-0.0688" y="1" relative="1" as="geometry">
            <mxPoint y="-1" as="offset" />
          </mxGeometry>
        </mxCell>
        <mxCell id="7bcsrVmga6aSKQYHcsEv-25" style="edgeStyle=orthogonalEdgeStyle;rounded=0;orthogonalLoop=1;jettySize=auto;html=1;exitX=1;exitY=0.75;exitDx=0;exitDy=0;entryX=0.096;entryY=0.689;entryDx=0;entryDy=0;entryPerimeter=0;" parent="1" source="7bcsrVmga6aSKQYHcsEv-2" target="7bcsrVmga6aSKQYHcsEv-8" edge="1">
          <mxGeometry relative="1" as="geometry" />
        </mxCell>
        <mxCell id="7bcsrVmga6aSKQYHcsEv-26" value="Vehicle &lt;br&gt;commands" style="edgeLabel;html=1;align=center;verticalAlign=middle;resizable=0;points=[];" parent="7bcsrVmga6aSKQYHcsEv-25" vertex="1" connectable="0">
          <mxGeometry x="-0.1404" y="-4" relative="1" as="geometry">
            <mxPoint x="-4" y="-4" as="offset" />
          </mxGeometry>
        </mxCell>
      </root>
    </mxGraphModel>
  </diagram>
</mxfile>
